<svg width="51" height="35" viewBox="0 0 51 35" fill="none" xmlns="http://www.w3.org/2000/svg">
<rect width="34" height="18" fill="url(#paint0_linear)"/>
<path d="M34.0432 18.0002C34.0432 26.8947 26.4224 34.1052 17.0216 34.1052C7.62083 34.1052 0 26.8947 0 18.0002C8.1552 18.0002 7.62083 18 17.0216 18C26.4224 18 26.4096 18.0001 34.0432 18.0002Z" fill="url(#paint1_linear)"/>
<rect width="34.0432" height="17.8946" transform="matrix(1 0 0 -1 16.3599 33.9998)" fill="url(#paint2_linear)"/>
<path d="M50.4026 16.1052C50.4026 7.21069 42.7817 0.000242233 33.381 0.000242233C23.9802 0.000242233 16.3594 7.21069 16.3594 16.1052C24.5146 16.1052 23.9802 16.1054 33.381 16.1054C42.7817 16.1054 42.7689 16.1053 50.4026 16.1052Z" fill="url(#paint3_linear)"/>
<defs>
<linearGradient id="paint0_linear" x1="17" y1="18" x2="17" y2="6.02851e-07" gradientUnits="userSpaceOnUse">
<stop offset="0.00312487" stop-color="#3975FF" stop-opacity="0.65"/>
<stop offset="1" stop-color="#3975FF" stop-opacity="0.35"/>
</linearGradient>
<linearGradient id="paint1_linear" x1="17.0216" y1="34.1052" x2="17.0216" y2="18" gradientUnits="userSpaceOnUse">
<stop stop-color="#3975FF"/>
<stop offset="0.340061" stop-color="#3975FF"/>
<stop offset="1" stop-color="#3975FF" stop-opacity="0.65"/>
</linearGradient>
<linearGradient id="paint2_linear" x1="17.0216" y1="17.8946" x2="17.0216" y2="5.99322e-07" gradientUnits="userSpaceOnUse">
<stop offset="0.00312487" stop-color="#3975FF" stop-opacity="0.65"/>
<stop offset="1" stop-color="#3975FF" stop-opacity="0.35"/>
</linearGradient>
<linearGradient id="paint3_linear" x1="33.381" y1="0.000242863" x2="33.381" y2="16.1054" gradientUnits="userSpaceOnUse">
<stop stop-color="#3975FF"/>
<stop offset="0.340061" stop-color="#3975FF"/>
<stop offset="1" stop-color="#3975FF" stop-opacity="0.65"/>
</linearGradient>
</defs>
</svg>
